<svg xmlns="http://www.w3.org/2000/svg" width="512" height="512" viewBox="0 0 512 512">
  <g fill="none" fill-rule="evenodd">
    <circle cx="256" cy="256" r="256" fill="#000EFF"/>
    <path fill="#FFFFFF" d="M253.714946,113.62 C180.182419,113.62 137.255323,148.597634 137.255323,202.256505 C137.255323,263.069892 185.747043,277.378925 240.598333,292.08543 C276.370914,301.227312 290.282473,305.202043 290.282473,323.088333 C290.282473,337.794839 277.960806,347.334194 256.497258,347.334194 C229.866559,347.334194 217.544892,335.012527 217.544892,311.16414 L131.690699,311.16414 C131.690699,373.567419 177.002634,409.34 253.714946,409.34 C328.837366,409.34 374.149301,374.362366 374.149301,317.921183 C374.149301,255.517903 325.260108,239.221505 269.613871,225.707419 C231.456452,216.565538 218.339839,211.79586 218.339839,195.499462 C218.339839,182.382849 229.866559,173.638441 249.740215,173.638441 C272.793656,173.638441 284.717849,185.165161 284.717849,205.833763 L368.187204,205.833763 C368.187204,145.020376 325.657581,113.62 253.714946,113.62 Z"/>
  </g>
</svg>
